<!DOCTYPE svg PUBLIC "-//W3C//DTD SVG 1.1//EN" "http://www.w3.org/Graphics/SVG/1.1/DTD/svg11.dtd">
<!-- Uploaded to: SVG Repo, www.svgrepo.com, Transformed by: SVG Repo Mixer Tools -->
<svg fill="#0080c0" height="800px" width="800px" version="1.1" id="Layer_1" xmlns="http://www.w3.org/2000/svg" xmlns:xlink="http://www.w3.org/1999/xlink" viewBox="0 0 490 490" xml:space="preserve">
<g id="SVGRepo_bgCarrier" stroke-width="0"/>
<g id="SVGRepo_tracerCarrier" stroke-linecap="round" stroke-linejoin="round"/>
<g id="SVGRepo_iconCarrier"> <g> <g> <path d="M379.074,275.799l-125-270C252.438,2.263,248.896,0,245,0s-7.438,2.263-9.074,5.799l-125,270 c-1.093,2.359-1.224,5.051-0.364,7.505L140.905,370H130c-5.522,0-10,4.477-10,10v60c0,5.523,4.478,10,10,10h25v40h20v-40h140v40 h20v-40h25c5.522,0,10-4.477,10-10v-60c0-5.523-4.478-10-10-10h-10.905l30.344-86.696 C380.298,280.85,380.167,278.158,379.074,275.799z M245,235c13.785,0,25,11.215,25,25c0,13.785-11.215,25-25,25 c-13.785,0-25-11.215-25-25C220,246.215,231.215,235,245,235z M350,390v40H140v-40h15h180H350z M327.905,370h-165.81 l-31.317-89.478L235,55.402v160.732c-20.015,4.561-35,22.491-35,43.866c0,24.813,20.186,45,45,45c24.814,0,45-20.187,45-45 c0-21.376-14.986-39.305-35-43.866V55.402l104.223,225.12L327.905,370z"/> </g> </g> </g>
</svg>