<!DOCTYPE svg PUBLIC "-//W3C//DTD SVG 1.1//EN" "http://www.w3.org/Graphics/SVG/1.1/DTD/svg11.dtd">
<!-- Uploaded to: SVG Repo, www.svgrepo.com, Transformed by: SVG Repo Mixer Tools -->
<svg width="800px" height="800px" viewBox="0 0 24 24" xmlns="http://www.w3.org/2000/svg" fill="#0080c0">
<g id="SVGRepo_bgCarrier" stroke-width="0"/>
<g id="SVGRepo_tracerCarrier" stroke-linecap="round" stroke-linejoin="round"/>
<g id="SVGRepo_iconCarrier">
<path d="M6 9h2v2H6zm0 7h2v-2H6zm0 5h2v-2H6zm4-1h11v-1H10zm0-5h11v-1H10zm0-5h11V9H10zM2 3h3v3H2zm1 2h1V4H3zm19-2v3h-3V3zm-1 1h-1v1h1zm-5 1v1l2-1.5L16 3v1H8V3L6 4.5 8 6V5z"/>
<path fill="none" d="M0 0h24v24H0z"/>
</g>
</svg>